# xmcd CD database file
#
# Track frame offsets:
#	150
#	13924
#	27312
#	41226
#	52071
#	68893
#	83956
#	96989
#	109353
#	125931
#	142332
#	159297
#	175130
#	187563
#	200313
#	221820
#	233651
#	251776
#	266581
#	283905
#
# Disc length: 3962 seconds
#
# Revision: 0
# Processed by: cddbd v1.5.2PL0 Copyright (c) Steve Scherf et al.
# Submitted via: CDex 1.50beta10
#
DISCID=380f7814
DTITLE=The Phoenix - One
DYEAR=2010
DGENRE=Country
TTITLE0=There Goes My Heart
TTITLE1=Your Cheating Heart
TTITLE2=Guitar, Cadillacs
TTITLE3=Act Naturally
TTITLE4=Designated Drinker
TTITLE5=Boot Scooting Boogie
TTITLE6=Six Days On The Road
TTITLE7=Sea Of Heartbreak
TTITLE8=Good Hearted Woman
TTITLE9=Tonight The Bottle Let Me Down
TTITLE10=Living On Love
TTITLE11=I Just Wanna Dance With You
TTITLE12=Genie In A Bottle
TTITLE13=Folsom Prison Blues
TTITLE14=Honkey Tonk Angels
TTITLE15=Walk The Line
TTITLE16=Chattahoochie
TTITLE17=Lights On The Hill
TTITLE18=I Love This Bar
TTITLE19=Swinging Doors
EXTD=YEAR: 2010
EXTT0=
EXTT1=
EXTT2=
EXTT3=
EXTT4=
EXTT5=
EXTT6=
EXTT7=
EXTT8=
EXTT9=
EXTT10=
EXTT11=
EXTT12=
EXTT13=
EXTT14=
EXTT15=
EXTT16=
EXTT17=
EXTT18=
EXTT19=
PLAYORDER=
